<?xml version="1.0" encoding="UTF-8" standalone="no"?>
<!-- Created with Inkscape (http://www.inkscape.org/) -->

<svg
   xmlns:dc="http://purl.org/dc/elements/1.1/"
   xmlns:cc="http://creativecommons.org/ns#"
   xmlns:rdf="http://www.w3.org/1999/02/22-rdf-syntax-ns#"
   xmlns:svg="http://www.w3.org/2000/svg"
   xmlns="http://www.w3.org/2000/svg"
   xmlns:sodipodi="http://sodipodi.sourceforge.net/DTD/sodipodi-0.dtd"
   xmlns:inkscape="http://www.inkscape.org/namespaces/inkscape"
   width="602.36218"
   height="602.36218"
   id="svg2"
   version="1.1"
   inkscape:version="0.48.4 r9939"
   sodipodi:docname="ottpcounter.svg">
  <defs
     id="defs4" />
  <sodipodi:namedview
     id="base"
     pagecolor="#ffffff"
     bordercolor="#666666"
     borderopacity="1.0"
     inkscape:pageopacity="0.0"
     inkscape:pageshadow="2"
     inkscape:zoom="8"
     inkscape:cx="336.08088"
     inkscape:cy="267.49299"
     inkscape:document-units="px"
     inkscape:current-layer="layer1"
     showgrid="false"
     units="mm"
     inkscape:window-width="1795"
     inkscape:window-height="1307"
     inkscape:window-x="518"
     inkscape:window-y="58"
     inkscape:window-maximized="0"
     showguides="true"
     inkscape:guide-bbox="true">
    <inkscape:grid
       type="xygrid"
       id="grid4940"
       empspacing="5"
       visible="true"
       enabled="true"
       snapvisiblegridlinesonly="true" />
  </sodipodi:namedview>
  <metadata
     id="metadata7">
    <rdf:RDF>
      <cc:Work
         rdf:about="">
        <dc:format>image/svg+xml</dc:format>
        <dc:type
           rdf:resource="http://purl.org/dc/dcmitype/StillImage" />
        <dc:title />
      </cc:Work>
    </rdf:RDF>
  </metadata>
  <g
     inkscape:label="Layer 1"
     inkscape:groupmode="layer"
     id="layer1"
     transform="translate(0,-450)">
    <rect
       style="opacity:0.98000004;fill:none;stroke:#000000;stroke-width:1;stroke-linecap:round;stroke-linejoin:round;stroke-miterlimit:4;stroke-opacity:1;stroke-dasharray:none"
       id="rect2985"
       width="194.95944"
       height="423.25391"
       x="213.06097"
       y="532.05237" />
    <path
       sodipodi:type="arc"
       style="fill:#000000;fill-opacity:1;fill-rule:evenodd;stroke:#000000;stroke-width:1px;stroke-linecap:butt;stroke-linejoin:miter;stroke-opacity:1"
       id="path4023"
       sodipodi:cx="319.71329"
       sodipodi:cy="24.554926"
       sodipodi:rx="5.5558391"
       sodipodi:ry="6.0609155"
       d="m 325.26913,24.554926 c 0,3.347351 -2.48744,6.060915 -5.55584,6.060915 -3.06841,0 -5.55584,-2.713564 -5.55584,-6.060915 0,-3.347351 2.48743,-6.060916 5.55584,-6.060916 3.0684,0 5.55584,2.713565 5.55584,6.060916 z"
       transform="matrix(0.66284947,0,0,-0.607612,196.13723,579.93042)" />
    <rect
       style="opacity:0.98000004;fill:none;stroke:#000000;stroke-opacity:1"
       id="rect3880"
       width="30.304577"
       height="28.284271"
       x="299.1879"
       y="641.14886" />
    <text
       xml:space="preserve"
       style="font-size:12px;font-style:normal;font-variant:normal;font-weight:normal;font-stretch:normal;line-height:125%;letter-spacing:0px;word-spacing:0px;fill:#000000;fill-opacity:1;stroke:none;font-family:Arial;-inkscape-font-specification:Arial"
       x="308.31989"
       y="659.60352"
       id="text4004"
       sodipodi:linespacing="125%"><tspan
         sodipodi:role="line"
         id="tspan4006"
         x="308.31989"
         y="659.60352">1</tspan></text>
    <rect
       style="opacity:0.98000004;fill:none;stroke:#000000;stroke-opacity:1"
       id="rect3880-5"
       width="30.304577"
       height="28.284271"
       x="299.64752"
       y="683.42261" />
    <text
       xml:space="preserve"
       style="font-size:12px;font-style:normal;font-variant:normal;font-weight:normal;font-stretch:normal;line-height:125%;letter-spacing:0px;word-spacing:0px;fill:#000000;fill-opacity:1;stroke:none;font-family:Arial;-inkscape-font-specification:Arial"
       x="308.77951"
       y="701.87726"
       id="text4004-9"
       sodipodi:linespacing="125%"><tspan
         sodipodi:role="line"
         id="tspan4006-3"
         x="308.77951"
         y="701.87726">2</tspan></text>
    <rect
       style="opacity:0.98000004;fill:none;stroke:#000000;stroke-opacity:1"
       id="rect3880-0"
       width="30.304577"
       height="28.284271"
       x="299.64752"
       y="725.69641" />
    <text
       xml:space="preserve"
       style="font-size:12px;font-style:normal;font-variant:normal;font-weight:normal;font-stretch:normal;line-height:125%;letter-spacing:0px;word-spacing:0px;fill:#000000;fill-opacity:1;stroke:none;font-family:Arial;-inkscape-font-specification:Arial"
       x="308.77951"
       y="744.15106"
       id="text4004-8"
       sodipodi:linespacing="125%"><tspan
         sodipodi:role="line"
         id="tspan4006-35"
         x="308.77951"
         y="744.15106">3</tspan></text>
    <rect
       style="opacity:0.98000004;fill:none;stroke:#000000;stroke-opacity:1"
       id="rect3880-9"
       width="30.304577"
       height="28.284271"
       x="300.36182"
       y="767.97015" />
    <text
       xml:space="preserve"
       style="font-size:12px;font-style:normal;font-variant:normal;font-weight:normal;font-stretch:normal;line-height:125%;letter-spacing:0px;word-spacing:0px;fill:#000000;fill-opacity:1;stroke:none;font-family:Arial;-inkscape-font-specification:Arial"
       x="309.4938"
       y="786.4248"
       id="text4004-0"
       sodipodi:linespacing="125%"><tspan
         sodipodi:role="line"
         id="tspan4006-7"
         x="309.4938"
         y="786.4248">4</tspan></text>
    <rect
       style="opacity:0.98000004;fill:none;stroke:#000000;stroke-opacity:1"
       id="rect3880-1"
       width="30.304577"
       height="28.284271"
       x="301.07608"
       y="810.2439" />
    <text
       xml:space="preserve"
       style="font-size:12px;font-style:normal;font-variant:normal;font-weight:normal;font-stretch:normal;line-height:125%;letter-spacing:0px;word-spacing:0px;fill:#000000;fill-opacity:1;stroke:none;font-family:Arial;-inkscape-font-specification:Arial"
       x="310.20807"
       y="828.69855"
       id="text4004-5"
       sodipodi:linespacing="125%"><tspan
         sodipodi:role="line"
         id="tspan4006-0"
         x="310.20807"
         y="828.69855">5</tspan></text>
    <rect
       style="opacity:0.98000004;fill:none;stroke:#000000;stroke-opacity:1"
       id="rect3880-12"
       width="30.304577"
       height="28.284271"
       x="300.36182"
       y="852.5177" />
    <text
       xml:space="preserve"
       style="font-size:12px;font-style:normal;font-variant:normal;font-weight:normal;font-stretch:normal;line-height:125%;letter-spacing:0px;word-spacing:0px;fill:#000000;fill-opacity:1;stroke:none;font-family:Arial;-inkscape-font-specification:Arial"
       x="309.4938"
       y="870.97235"
       id="text4004-2"
       sodipodi:linespacing="125%"><tspan
         sodipodi:role="line"
         id="tspan4006-6"
         x="309.4938"
         y="870.97235">6</tspan></text>
    <path
       style="fill:none;stroke:#000000;stroke-width:0.91475266px;stroke-linecap:butt;stroke-linejoin:miter;stroke-opacity:1"
       d="m 329.45738,649.24813 19.01381,0 0,211.23027 -17.92196,0"
       id="path4263"
       inkscape:connector-curvature="0"
       sodipodi:nodetypes="cccc" />
    <path
       style="fill:none;stroke:#000000;stroke-width:0.96767104px;stroke-linecap:butt;stroke-linejoin:miter;stroke-opacity:1"
       d="m 408.1765,565.07647 46.71843,0"
       id="path4277"
       inkscape:connector-curvature="0" />
    <path
       style="fill:none;stroke:#000000;stroke-width:1px;stroke-linecap:butt;stroke-linejoin:miter;stroke-opacity:1"
       d="m 408,565.36218 -60,0 0.32143,83.67857"
       id="path4265"
       inkscape:connector-curvature="0"
       sodipodi:nodetypes="ccc" />
    <path
       style="fill:none;stroke:#000000;stroke-width:1px;stroke-linecap:butt;stroke-linejoin:miter;stroke-opacity:1"
       d="m 329.84997,691.25325 18.92857,0"
       id="path4267"
       inkscape:connector-curvature="0" />
    <path
       style="fill:none;stroke:#000000;stroke-width:0.98623234px;stroke-linecap:butt;stroke-linejoin:miter;stroke-opacity:1"
       d="m 330.37341,732.8553 18.06204,0.3709"
       id="path4269"
       inkscape:connector-curvature="0" />
    <path
       style="fill:none;stroke:#000000;stroke-width:1px;stroke-linecap:butt;stroke-linejoin:miter;stroke-opacity:1"
       d="m 330.92857,817.86218 17.5,0"
       id="path4273"
       inkscape:connector-curvature="0" />
    <path
       sodipodi:type="arc"
       style="fill:#000000;fill-opacity:1;fill-rule:evenodd;stroke:#000000;stroke-width:1px;stroke-linecap:butt;stroke-linejoin:miter;stroke-opacity:1"
       id="path4023-2"
       sodipodi:cx="319.71329"
       sodipodi:cy="24.554926"
       sodipodi:rx="5.5558391"
       sodipodi:ry="6.0609155"
       d="m 325.26913,24.554926 c 0,3.347351 -2.48744,6.060915 -5.55584,6.060915 -3.06841,0 -5.55584,-2.713564 -5.55584,-6.060915 0,-3.347351 2.48743,-6.060916 5.55584,-6.060916 3.0684,0 5.55584,2.713565 5.55584,6.060916 z"
       transform="matrix(0.66284947,0,0,0.607612,196.07821,646.87131)" />
    <path
       sodipodi:type="arc"
       style="fill:#000000;fill-opacity:1;fill-rule:evenodd;stroke:#000000;stroke-width:1px;stroke-linecap:butt;stroke-linejoin:miter;stroke-opacity:1"
       id="path4023-8"
       sodipodi:cx="319.71329"
       sodipodi:cy="24.554926"
       sodipodi:rx="5.5558391"
       sodipodi:ry="6.0609155"
       d="m 325.26913,24.554926 c 0,3.347351 -2.48744,6.060915 -5.55584,6.060915 -3.06841,0 -5.55584,-2.713564 -5.55584,-6.060915 0,-3.347351 2.48743,-6.060916 5.55584,-6.060916 3.0684,0 5.55584,2.713565 5.55584,6.060916 z"
       transform="matrix(0.66284947,0,0,0.607612,196.07822,689.14431)" />
    <path
       sodipodi:type="arc"
       style="fill:#000000;fill-opacity:1;fill-rule:evenodd;stroke:#000000;stroke-width:1px;stroke-linecap:butt;stroke-linejoin:miter;stroke-opacity:1"
       id="path4023-0"
       sodipodi:cx="319.71329"
       sodipodi:cy="24.554926"
       sodipodi:rx="5.5558391"
       sodipodi:ry="6.0609155"
       d="m 325.26913,24.554926 c 0,3.347351 -2.48744,6.060915 -5.55584,6.060915 -3.06841,0 -5.55584,-2.713564 -5.55584,-6.060915 0,-3.347351 2.48743,-6.060916 5.55584,-6.060916 3.0684,0 5.55584,2.713565 5.55584,6.060916 z"
       transform="matrix(0.66284947,0,0,0.607612,196.07821,731.41831)" />
    <path
       sodipodi:type="arc"
       style="fill:#000000;fill-opacity:1;fill-rule:evenodd;stroke:#000000;stroke-width:1px;stroke-linecap:butt;stroke-linejoin:miter;stroke-opacity:1"
       id="path4023-7"
       sodipodi:cx="319.71329"
       sodipodi:cy="24.554926"
       sodipodi:rx="5.5558391"
       sodipodi:ry="6.0609155"
       d="m 325.26913,24.554926 c 0,3.347351 -2.48744,6.060915 -5.55584,6.060915 -3.06841,0 -5.55584,-2.713564 -5.55584,-6.060915 0,-3.347351 2.48743,-6.060916 5.55584,-6.060916 3.0684,0 5.55584,2.713565 5.55584,6.060916 z"
       transform="matrix(0.66284947,0,0,0.607612,196.07822,815.96631)" />
    <path
       style="fill:none;stroke:#000000;stroke-width:1.18233025px;stroke-linecap:butt;stroke-linejoin:miter;stroke-opacity:1"
       d="m 329.03483,662.15751 78.63511,-0.25"
       id="path4406"
       inkscape:connector-curvature="0"
       sodipodi:nodetypes="cc" />
    <path
       style="fill:none;stroke:#000000;stroke-width:1.2017374px;stroke-linecap:butt;stroke-linejoin:miter;stroke-opacity:1"
       d="m 329.99731,703.98037 76.58883,0"
       id="path4406-9"
       inkscape:connector-curvature="0" />
    <path
       sodipodi:type="arc"
       style="fill:#000000;fill-opacity:1;fill-rule:evenodd;stroke:#000000;stroke-width:1px;stroke-linecap:butt;stroke-linejoin:miter;stroke-opacity:1"
       id="path4023-00-7"
       sodipodi:cx="319.71329"
       sodipodi:cy="24.554926"
       sodipodi:rx="5.5558391"
       sodipodi:ry="6.0609155"
       d="m 325.26913,24.554926 c 0,3.347351 -2.48744,6.060915 -5.55584,6.060915 -3.06841,0 -5.55584,-2.713564 -5.55584,-6.060915 0,-3.347351 2.48743,-6.060916 5.55584,-6.060916 3.0684,0 5.55584,2.713565 5.55584,6.060916 z"
       transform="matrix(0.66284947,0,0,0.607612,136.00598,802.90469)" />
    <path
       style="fill:none;stroke:#000000;stroke-width:1.21285522px;stroke-linecap:butt;stroke-linejoin:miter;stroke-opacity:1"
       d="m 329.62386,746.76032 78.0125,0"
       id="path4406-9-4"
       inkscape:connector-curvature="0" />
    <path
       style="fill:none;stroke:#000000;stroke-width:1.19935584px;stroke-linecap:butt;stroke-linejoin:miter;stroke-opacity:1"
       d="m 331.72216,830.90603 76.28557,0"
       id="path4406-9-5"
       inkscape:connector-curvature="0" />
    <path
       style="fill:none;stroke:#000000;stroke-width:1px;stroke-linecap:butt;stroke-linejoin:miter;stroke-opacity:1"
       d="m 409.76766,661.90751 44.28571,0"
       id="path4277-2"
       inkscape:connector-curvature="0" />
    <path
       style="fill:none;stroke:#000000;stroke-width:1px;stroke-linecap:butt;stroke-linejoin:miter;stroke-opacity:1"
       d="m 410.12121,703.62681 44.28571,0"
       id="path4277-4"
       inkscape:connector-curvature="0" />
    <path
       style="fill:none;stroke:#000000;stroke-width:1px;stroke-linecap:butt;stroke-linejoin:miter;stroke-opacity:1"
       d="m 409.41411,746.05321 44.28571,0"
       id="path4277-43"
       inkscape:connector-curvature="0" />
    <path
       style="fill:none;stroke:#000000;stroke-width:1px;stroke-linecap:butt;stroke-linejoin:miter;stroke-opacity:1"
       d="m 409.41411,830.55248 44.28571,0"
       id="path4277-6"
       inkscape:connector-curvature="0" />
    <text
       xml:space="preserve"
       style="font-size:12px;font-style:normal;font-variant:normal;font-weight:normal;font-stretch:normal;line-height:125%;letter-spacing:0px;word-spacing:0px;fill:#000000;fill-opacity:1;stroke:none;font-family:Arial;-inkscape-font-specification:Arial"
       x="469.00586"
       y="570.36218"
       id="text4812"
       sodipodi:linespacing="125%"><tspan
         sodipodi:role="line"
         id="tspan4814"
         x="469.00586"
         y="570.36218">REF 1 PPS</tspan></text>
    <path
       sodipodi:type="arc"
       style="fill:#000000;fill-opacity:1;fill-rule:evenodd;stroke:#000000;stroke-width:1px;stroke-linecap:butt;stroke-linejoin:miter;stroke-opacity:1"
       id="path4023-1-9-3"
       sodipodi:cx="319.71329"
       sodipodi:cy="24.554926"
       sodipodi:rx="5.5558391"
       sodipodi:ry="6.0609155"
       d="m 325.26913,24.554926 c 0,3.347351 -2.48744,6.060915 -5.55584,6.060915 -3.06841,0 -5.55584,-2.713564 -5.55584,-6.060915 0,-3.347351 2.48743,-6.060916 5.55584,-6.060916 3.0684,0 5.55584,2.713565 5.55584,6.060916 z"
       transform="matrix(0.66284947,0,0,0.607612,1.43177,860.47051)" />
    <path
       style="fill:none;stroke:#000000;stroke-width:1px;stroke-linecap:butt;stroke-linejoin:miter;stroke-opacity:1"
       d="m 164,875.36218 49,0"
       id="path4277-6-4"
       inkscape:connector-curvature="0"
       sodipodi:nodetypes="cc" />
    <text
       xml:space="preserve"
       style="font-size:12px;font-style:normal;font-variant:normal;font-weight:normal;font-stretch:normal;line-height:125%;letter-spacing:0px;word-spacing:0px;fill:#000000;fill-opacity:1;stroke:none;font-family:Arial;-inkscape-font-specification:Arial"
       x="125.51503"
       y="878.86798"
       id="text4870"
       sodipodi:linespacing="125%"><tspan
         sodipodi:role="line"
         id="tspan4872"
         x="125.51503"
         y="878.86798">GPIO*</tspan></text>
    <path
       style="fill:none;stroke:#000000;stroke-width:1px;stroke-linecap:butt;stroke-linejoin:miter;stroke-opacity:1"
       d="m 235.66125,729.03976 -0.35355,63.63961 22.27387,10.6066 0,-85.20637 -21.92031,10.96016"
       id="path4876"
       inkscape:connector-curvature="0"
       sodipodi:nodetypes="ccccc" />
    <path
       sodipodi:type="arc"
       style="fill:#000000;fill-opacity:1;fill-rule:evenodd;stroke:#000000;stroke-width:1px;stroke-linecap:butt;stroke-linejoin:miter;stroke-opacity:1"
       id="path4023-00-7-24"
       sodipodi:cx="319.71329"
       sodipodi:cy="24.554926"
       sodipodi:rx="5.5558391"
       sodipodi:ry="6.0609155"
       d="m 325.26913,24.554926 c 0,3.347351 -2.48744,6.060915 -5.55584,6.060915 -3.06841,0 -5.55584,-2.713564 -5.55584,-6.060915 0,-3.347351 2.48743,-6.060916 5.55584,-6.060916 3.0684,0 5.55584,2.713565 5.55584,6.060916 z"
       transform="matrix(0.66284947,0,0,0.607612,136.90726,717.87509)" />
    <path
       sodipodi:type="arc"
       style="fill:#000000;fill-opacity:1;fill-rule:evenodd;stroke:#000000;stroke-width:1px;stroke-linecap:butt;stroke-linejoin:miter;stroke-opacity:1"
       id="path4023-00-7-5"
       sodipodi:cx="319.71329"
       sodipodi:cy="24.554926"
       sodipodi:rx="5.5558391"
       sodipodi:ry="6.0609155"
       d="m 325.26913,24.554926 c 0,3.347351 -2.48744,6.060915 -5.55584,6.060915 -3.06841,0 -5.55584,-2.713564 -5.55584,-6.060915 0,-3.347351 2.48743,-6.060916 5.55584,-6.060916 3.0684,0 5.55584,2.713565 5.55584,6.060916 z"
       transform="matrix(0.66284947,0,0,0.607612,136.55371,676.1558)" />
    <path
       sodipodi:type="arc"
       style="fill:#000000;fill-opacity:1;fill-rule:evenodd;stroke:#000000;stroke-width:1px;stroke-linecap:butt;stroke-linejoin:miter;stroke-opacity:1"
       id="path4023-00-7-1"
       sodipodi:cx="319.71329"
       sodipodi:cy="24.554926"
       sodipodi:rx="5.5558391"
       sodipodi:ry="6.0609155"
       d="m 325.26913,24.554926 c 0,3.347351 -2.48744,6.060915 -5.55584,6.060915 -3.06841,0 -5.55584,-2.713564 -5.55584,-6.060915 0,-3.347351 2.48743,-6.060916 5.55584,-6.060916 3.0684,0 5.55584,2.713565 5.55584,6.060916 z"
       transform="matrix(0.66284947,0,0,0.607612,136.55371,634.08295)" />
    <path
       style="fill:none;stroke:#000000;stroke-width:1.02127457px;stroke-linecap:butt;stroke-linejoin:miter;stroke-opacity:1"
       d="M 236.41056,760.68278 163,760.36218"
       id="path4917"
       inkscape:connector-curvature="0"
       sodipodi:nodetypes="cc" />
    <text
       xml:space="preserve"
       style="font-size:12px;font-style:normal;font-variant:normal;font-weight:normal;font-stretch:normal;line-height:125%;letter-spacing:0px;word-spacing:0px;fill:#000000;fill-opacity:1;stroke:none;font-family:Arial;-inkscape-font-specification:Arial"
       x="101.94727"
       y="765.16003"
       id="text4870-7"
       sodipodi:linespacing="125%"><tspan
         sodipodi:role="line"
         id="tspan4872-5"
         x="101.94727"
         y="765.16003">PPS OUT</tspan></text>
    <path
       style="fill:none;stroke:#000000;stroke-width:1px;stroke-linecap:butt;stroke-linejoin:miter;stroke-opacity:1"
       d="m 258,730.36218 5,0 0,-165 85,0"
       id="path4942"
       inkscape:connector-curvature="0" />
    <path
       style="fill:none;stroke:#000000;stroke-width:1px;stroke-linecap:butt;stroke-linejoin:miter;stroke-opacity:1"
       d="m 258,740.36218 10,0 0,-65 70,0 0,-15"
       id="path4944"
       inkscape:connector-curvature="0" />
    <path
       style="fill:none;stroke:#000000;stroke-width:1px;stroke-linecap:butt;stroke-linejoin:miter;stroke-opacity:1"
       d="m 258,750.36218 15,0 0,-31.64124 65,0 c 0,0 0,-16.18718 0,-14.77297"
       id="path4946"
       inkscape:connector-curvature="0"
       sodipodi:nodetypes="ccccc" />
    <path
       style="fill:none;stroke:#000000;stroke-width:1px;stroke-linecap:butt;stroke-linejoin:miter;stroke-opacity:1"
       d="m 258,760.36218 80,0 c 0,0 0,-11.9948 0,-13.58579"
       id="path4948"
       inkscape:connector-curvature="0"
       sodipodi:nodetypes="ccc" />
    <path
       style="fill:none;stroke:#000000;stroke-width:1px;stroke-linecap:butt;stroke-linejoin:miter;stroke-opacity:1"
       d="m 258,770.36218 15,0 0.17678,33.35876 64.64644,-0.0884 0.17678,-28.39169 -7.375,-0.125"
       id="path4950"
       inkscape:connector-curvature="0"
       sodipodi:nodetypes="cccccc" />
    <path
       style="fill:none;stroke:#000000;stroke-width:1px;stroke-linecap:butt;stroke-linejoin:miter;stroke-opacity:1"
       d="m 258,780.36218 10,0 0,65 70,0 0,-15"
       id="path4952"
       inkscape:connector-curvature="0" />
    <path
       style="fill:none;stroke:#000000;stroke-width:1px;stroke-linecap:butt;stroke-linejoin:miter;stroke-opacity:1"
       d="m 258,790.36218 5,0 0.17678,97.2981 74.82322,0.17677 0,-15.35355"
       id="path4954"
       inkscape:connector-curvature="0"
       sodipodi:nodetypes="ccccc" />
    <path
       sodipodi:type="arc"
       style="fill:#000000;fill-opacity:1;fill-rule:evenodd;stroke:#000000;stroke-width:1px;stroke-linecap:butt;stroke-linejoin:miter;stroke-opacity:1"
       id="path4023-00-2-7"
       sodipodi:cx="319.71329"
       sodipodi:cy="24.554926"
       sodipodi:rx="5.5558391"
       sodipodi:ry="6.0609155"
       d="m 325.26913,24.554926 c 0,3.347351 -2.48744,6.060915 -5.55584,6.060915 -3.06841,0 -5.55584,-2.713564 -5.55584,-6.060915 0,-3.347351 2.48743,-6.060916 5.55584,-6.060916 3.0684,0 5.55584,2.713565 5.55584,6.060916 z"
       transform="matrix(0.66284947,0,0,0.607612,1.686913,744.92193)"
       inkscape:transform-center-x="32.880465"
       inkscape:transform-center-y="4" />
    <path
       sodipodi:type="arc"
       style="fill:#000000;fill-opacity:1;fill-rule:evenodd;stroke:#000000;stroke-width:1px;stroke-linecap:butt;stroke-linejoin:miter;stroke-opacity:1"
       id="path4023-00-2-1"
       sodipodi:cx="319.71329"
       sodipodi:cy="24.554926"
       sodipodi:rx="5.5558391"
       sodipodi:ry="6.0609155"
       d="m 325.26913,24.554926 c 0,3.347351 -2.48744,6.060915 -5.55584,6.060915 -3.06841,0 -5.55584,-2.713564 -5.55584,-6.060915 0,-3.347351 2.48743,-6.060916 5.55584,-6.060916 3.0684,0 5.55584,2.713565 5.55584,6.060916 z"
       transform="matrix(0.66284947,0,0,0.607612,126.1377,857.70546)"
       inkscape:transform-center-x="32.880465"
       inkscape:transform-center-y="4" />
    <path
       sodipodi:type="arc"
       style="fill:#000000;fill-opacity:1;fill-rule:evenodd;stroke:#000000;stroke-width:1px;stroke-linecap:butt;stroke-linejoin:miter;stroke-opacity:1"
       id="path4023-00-2-6"
       sodipodi:cx="319.71329"
       sodipodi:cy="24.554926"
       sodipodi:rx="5.5558391"
       sodipodi:ry="6.0609155"
       d="m 325.26913,24.554926 c 0,3.347351 -2.48744,6.060915 -5.55584,6.060915 -3.06841,0 -5.55584,-2.713564 -5.55584,-6.060915 0,-3.347351 2.48743,-6.060916 5.55584,-6.060916 3.0684,0 5.55584,2.713565 5.55584,6.060916 z"
       transform="matrix(0.66284947,0,0,0.607612,126.13771,815.63261)"
       inkscape:transform-center-x="32.880465"
       inkscape:transform-center-y="4" />
    <path
       sodipodi:type="arc"
       style="fill:#000000;fill-opacity:1;fill-rule:evenodd;stroke:#000000;stroke-width:1px;stroke-linecap:butt;stroke-linejoin:miter;stroke-opacity:1"
       id="path4023-00-2-8"
       sodipodi:cx="319.71329"
       sodipodi:cy="24.554926"
       sodipodi:rx="5.5558391"
       sodipodi:ry="6.0609155"
       d="m 325.26913,24.554926 c 0,3.347351 -2.48744,6.060915 -5.55584,6.060915 -3.06841,0 -5.55584,-2.713564 -5.55584,-6.060915 0,-3.347351 2.48743,-6.060916 5.55584,-6.060916 3.0684,0 5.55584,2.713565 5.55584,6.060916 z"
       transform="matrix(0.66284947,0,0,0.607612,126.31448,731.84045)"
       inkscape:transform-center-x="32.880465"
       inkscape:transform-center-y="4" />
    <path
       sodipodi:type="arc"
       style="fill:#000000;fill-opacity:1;fill-rule:evenodd;stroke:#000000;stroke-width:1px;stroke-linecap:butt;stroke-linejoin:miter;stroke-opacity:1"
       id="path4023-00-2-13"
       sodipodi:cx="319.71329"
       sodipodi:cy="24.554926"
       sodipodi:rx="5.5558391"
       sodipodi:ry="6.0609155"
       d="m 325.26913,24.554926 c 0,3.347351 -2.48744,6.060915 -5.55584,6.060915 -3.06841,0 -5.55584,-2.713564 -5.55584,-6.060915 0,-3.347351 2.48743,-6.060916 5.55584,-6.060916 3.0684,0 5.55584,2.713565 5.55584,6.060916 z"
       transform="matrix(0.66284947,0,0,0.607612,126.31448,688.88372)"
       inkscape:transform-center-x="32.880465"
       inkscape:transform-center-y="4" />
    <path
       sodipodi:type="arc"
       style="fill:#000000;fill-opacity:1;fill-rule:evenodd;stroke:#000000;stroke-width:1px;stroke-linecap:butt;stroke-linejoin:miter;stroke-opacity:1"
       id="path4023-00-2-3"
       sodipodi:cx="319.71329"
       sodipodi:cy="24.554926"
       sodipodi:rx="5.5558391"
       sodipodi:ry="6.0609155"
       d="m 325.26913,24.554926 c 0,3.347351 -2.48744,6.060915 -5.55584,6.060915 -3.06841,0 -5.55584,-2.713564 -5.55584,-6.060915 0,-3.347351 2.48743,-6.060916 5.55584,-6.060916 3.0684,0 5.55584,2.713565 5.55584,6.060916 z"
       transform="matrix(0.66284947,0,0,0.607612,126.31449,647.16442)"
       inkscape:transform-center-x="32.880465"
       inkscape:transform-center-y="4" />
    <path
       sodipodi:type="arc"
       style="fill:#000000;fill-opacity:1;fill-rule:evenodd;stroke:#000000;stroke-width:1px;stroke-linecap:butt;stroke-linejoin:miter;stroke-opacity:1"
       id="path4023-00-2-37"
       sodipodi:cx="319.71329"
       sodipodi:cy="24.554926"
       sodipodi:rx="5.5558391"
       sodipodi:ry="6.0609155"
       d="m 325.26913,24.554926 c 0,3.347351 -2.48744,6.060915 -5.55584,6.060915 -3.06841,0 -5.55584,-2.713564 -5.55584,-6.060915 0,-3.347351 2.48743,-6.060916 5.55584,-6.060916 3.0684,0 5.55584,2.713565 5.55584,6.060916 z"
       transform="matrix(0.66284947,0,0,-0.607612,136.04789,580.60527)"
       inkscape:transform-center-x="32.880465"
       inkscape:transform-center-y="-3.9999953" />
    <path
       style="fill:none;stroke:#000000;stroke-width:1px;stroke-linecap:butt;stroke-linejoin:miter;stroke-opacity:1"
       d="m 304.5,905.36218 -20,-10 0,20 20,-10"
       id="path5126"
       inkscape:connector-curvature="0"
       sodipodi:nodetypes="cccc" />
    <path
       style="fill:none;stroke:#000000;stroke-width:1px;stroke-linecap:butt;stroke-linejoin:miter;stroke-opacity:1"
       d="m 214,875.36218 20,0 0,30 50,0"
       id="path5139"
       inkscape:connector-curvature="0" />
    <path
       style="fill:none;stroke:#000000;stroke-width:1px;stroke-linecap:butt;stroke-linejoin:miter;stroke-opacity:1"
       d="m 304,905.36218 c 5,0 45,0 45,0 l -0.5,-33 -17.5,0"
       id="path5141"
       inkscape:connector-curvature="0"
       sodipodi:nodetypes="cccc" />
    <path
       style="fill:none;stroke:#000000;stroke-width:1px;stroke-linecap:butt;stroke-linejoin:miter;stroke-opacity:1"
       d="m 293.75,910.36218 0,19 160,0"
       id="path5143"
       inkscape:connector-curvature="0" />
    <text
       xml:space="preserve"
       style="font-size:12px;font-style:normal;font-variant:normal;font-weight:normal;font-stretch:normal;line-height:125%;letter-spacing:0px;word-spacing:0px;fill:#000000;fill-opacity:1;stroke:none;font-family:Arial;-inkscape-font-specification:Arial"
       x="469"
       y="933.86218"
       id="text5145"
       sodipodi:linespacing="125%"><tspan
         sodipodi:role="line"
         id="tspan5147"
         x="469"
         y="933.86218">ENABLE</tspan></text>
    <path
       style="fill:none;stroke:#000000;stroke-width:1px;stroke-linecap:butt;stroke-linejoin:miter;stroke-opacity:1"
       d="m 244,796.86218 0,148.5 210,0"
       id="path3193"
       inkscape:connector-curvature="0"
       sodipodi:nodetypes="ccc" />
    <text
       xml:space="preserve"
       style="font-size:12px;font-style:normal;font-variant:normal;font-weight:normal;font-stretch:normal;line-height:125%;letter-spacing:0px;word-spacing:0px;fill:#000000;fill-opacity:1;stroke:none;font-family:Arial;-inkscape-font-specification:Arial"
       x="469"
       y="949.1571"
       id="text5145-3"
       sodipodi:linespacing="125%"><tspan
         sodipodi:role="line"
         id="tspan5147-6"
         x="469"
         y="949.1571">SELECT</tspan></text>
    <text
       xml:space="preserve"
       style="font-size:12px;font-style:normal;font-variant:normal;font-weight:normal;font-stretch:normal;line-height:125%;letter-spacing:0px;word-spacing:0px;fill:#000000;fill-opacity:1;stroke:none;font-family:Arial;-inkscape-font-specification:Arial"
       x="464"
       y="665.36218"
       id="text4812-7"
       sodipodi:linespacing="125%"><tspan
         sodipodi:role="line"
         id="tspan4814-5"
         x="464"
         y="665.36218">unused</tspan></text>
    <text
       xml:space="preserve"
       style="font-size:12px;font-style:normal;font-variant:normal;font-weight:normal;font-stretch:normal;line-height:125%;letter-spacing:0px;word-spacing:0px;fill:#000000;fill-opacity:1;stroke:none;font-family:Arial;-inkscape-font-specification:Arial"
       x="464"
       y="705.36218"
       id="text4812-7-3"
       sodipodi:linespacing="125%"><tspan
         sodipodi:role="line"
         id="tspan4814-5-5"
         x="464"
         y="705.36218">unused</tspan></text>
    <text
       xml:space="preserve"
       style="font-size:12px;font-style:normal;font-variant:normal;font-weight:normal;font-stretch:normal;line-height:125%;letter-spacing:0px;word-spacing:0px;fill:#000000;fill-opacity:1;stroke:none;font-family:Arial;-inkscape-font-specification:Arial"
       x="464"
       y="748.36218"
       id="text4812-6"
       sodipodi:linespacing="125%"><tspan
         sodipodi:role="line"
         id="tspan4814-2"
         x="464"
         y="748.36218">GPS 1 PPS</tspan></text>
    <path
       style="fill:none;stroke:#000000;stroke-width:1px;stroke-linecap:butt;stroke-linejoin:miter;stroke-opacity:1"
       d="m 273.25,803.86218 -0.125,21.5 -109.125,0"
       id="path3290"
       inkscape:connector-curvature="0"
       sodipodi:nodetypes="ccc" />
    <path
       sodipodi:type="arc"
       style="fill:#000000;fill-opacity:1;fill-rule:evenodd;stroke:#000000;stroke-width:1px;stroke-linecap:butt;stroke-linejoin:miter;stroke-opacity:1"
       id="path4023-00-2-7-9"
       sodipodi:cx="319.71329"
       sodipodi:cy="24.554926"
       sodipodi:rx="5.5558391"
       sodipodi:ry="6.0609155"
       d="m 325.26913,24.554926 c 0,3.347351 -2.48744,6.060915 -5.55584,6.060915 -3.06841,0 -5.55584,-2.713564 -5.55584,-6.060915 0,-3.347351 2.48743,-6.060916 5.55584,-6.060916 3.0684,0 5.55584,2.713565 5.55584,6.060916 z"
       transform="matrix(0.66284947,0,0,0.607612,61.08388,788.76255)"
       inkscape:transform-center-x="32.880465"
       inkscape:transform-center-y="4" />
    <text
       xml:space="preserve"
       style="font-size:12px;font-style:normal;font-variant:normal;font-weight:normal;font-stretch:normal;line-height:125%;letter-spacing:0px;word-spacing:0px;fill:#000000;fill-opacity:1;stroke:none;font-family:Arial;-inkscape-font-specification:Arial"
       x="90.304688"
       y="830.16003"
       id="text4870-7-1"
       sodipodi:linespacing="125%"><tspan
         sodipodi:role="line"
         id="tspan4872-5-2"
         x="90.304688"
         y="830.16003">EXT PPS IN</tspan></text>
    <text
       xml:space="preserve"
       style="font-size:12px;font-style:normal;font-variant:normal;font-weight:normal;font-stretch:normal;line-height:125%;letter-spacing:0px;word-spacing:0px;fill:#000000;fill-opacity:1;stroke:none;font-family:Arial;-inkscape-font-specification:Arial"
       x="304.14648"
       y="635.1571"
       id="text5145-7"
       sodipodi:linespacing="125%"><tspan
         sodipodi:role="line"
         id="tspan5147-0"
         x="304.14648"
         y="635.1571">C/T</tspan></text>
    <text
       xml:space="preserve"
       style="font-size:12px;font-style:normal;font-variant:normal;font-weight:normal;font-stretch:normal;line-height:125%;letter-spacing:0px;word-spacing:0px;fill:#000000;fill-opacity:1;stroke:none;font-family:Arial;-inkscape-font-specification:Arial"
       x="465.85352"
       y="833.08679"
       id="text4812-7-3-9"
       sodipodi:linespacing="125%"><tspan
         sodipodi:role="line"
         id="tspan4814-5-5-3"
         x="465.85352"
         y="833.08679">???</tspan></text>
    <path
       style="fill:none;stroke:#000000;stroke-width:1px;stroke-linecap:butt;stroke-linejoin:miter;stroke-opacity:1"
       d="m 330.8742,339.08623 47.78148,-0.125 0,-42.32806"
       id="path3534"
       inkscape:connector-curvature="0"
       transform="translate(0,450)"
       sodipodi:nodetypes="ccc" />
    <path
       sodipodi:type="arc"
       style="fill:#000000;fill-opacity:1;fill-rule:evenodd;stroke:#000000;stroke-width:1px;stroke-linecap:butt;stroke-linejoin:miter;stroke-opacity:1"
       id="path4023-0-6"
       sodipodi:cx="319.71329"
       sodipodi:cy="24.554926"
       sodipodi:rx="5.5558391"
       sodipodi:ry="6.0609155"
       d="m 325.26913,24.554926 a 5.5558391,6.0609155 0 1 1 -11.11168,0 5.5558391,6.0609155 0 1 1 11.11168,0 z"
       transform="matrix(0.66284947,0,0,0.607612,166.70322,731.56731)" />
  </g>
</svg>
